REM DIRINDEX 1\2\5,1\2\6,1\2\7,1\2\8,1\3\9,1\3\10,1\3\11,1\4\12,1\4\13,1\4\14,1\4\15,1\4\16
REM DIRNAME cjc034,folder01,folder02,folder03,folder04,folder05,folder06,folder07,folder08,folder09,folder10,folder11,folder12,folder13,folder14,folder15
TITLE ""
FILE "1200_sec01_0211_0219.mp3" MP3
  TRACK 01 AUDIO
    TITLE "0:"
    INDEX 01 00:00:00
  TRACK 02 AUDIO
    TITLE "12:cjc034_04477"
    INDEX 01 00:00:19
  TRACK 03 AUDIO
    TITLE "0:"
    INDEX 01 00:01:42
  TRACK 04 AUDIO
    TITLE "13:cjc034_04478"
    INDEX 01 00:01:73
  TRACK 05 AUDIO
    TITLE "0:"
    INDEX 01 00:05:57
  TRACK 06 AUDIO
    TITLE "14:cjc034_04479"
    INDEX 01 00:06:16
  TRACK 07 AUDIO
    TITLE "0:"
    INDEX 01 00:07:39
  TRACK 08 AUDIO
    TITLE "15:cjc034_04480"
    INDEX 01 00:07:70
  TRACK 09 AUDIO
    TITLE "0:"
    INDEX 01 00:12:28
  TRACK 10 AUDIO
    TITLE "12:cjc034_04481"
    INDEX 01 00:13:61
  TRACK 11 AUDIO
    TITLE "0:"
    INDEX 01 00:15:17
  TRACK 12 AUDIO
    TITLE "13:cjc034_04482"
    INDEX 01 00:15:50
  TRACK 13 AUDIO
    TITLE "0:"
    INDEX 01 00:17:16
  TRACK 14 AUDIO
    TITLE "14:cjc034_04483"
    INDEX 01 00:17:49
  TRACK 15 AUDIO
    TITLE "0:"
    INDEX 01 00:19:07
  TRACK 16 AUDIO
    TITLE "15:cjc034_04484"
    INDEX 01 00:19:38
  TRACK 17 AUDIO
    TITLE "0:"
    INDEX 01 00:23:14
  TRACK 18 AUDIO
    TITLE "12:cjc034_04485"
    INDEX 01 00:24:49
  TRACK 19 AUDIO
    TITLE "0:"
    INDEX 01 00:25:62
  TRACK 20 AUDIO
    TITLE "13:cjc034_04486"
    INDEX 01 00:26:18
  TRACK 21 AUDIO
    TITLE "0:"
    INDEX 01 00:27:49
  TRACK 22 AUDIO
    TITLE "14:cjc034_04487"
    INDEX 01 00:28:08
  TRACK 23 AUDIO
    TITLE "0:"
    INDEX 01 00:29:19
  TRACK 24 AUDIO
    TITLE "15:cjc034_04488"
    INDEX 01 00:29:52
  TRACK 25 AUDIO
    TITLE "0:"
    INDEX 01 00:33:15
  TRACK 26 AUDIO
    TITLE "12:cjc034_04489"
    INDEX 01 00:34:51
  TRACK 27 AUDIO
    TITLE "0:"
    INDEX 01 00:36:27
  TRACK 28 AUDIO
    TITLE "13:cjc034_04490"
    INDEX 01 00:36:60
  TRACK 29 AUDIO
    TITLE "0:"
    INDEX 01 00:38:55
  TRACK 30 AUDIO
    TITLE "14:cjc034_04491"
    INDEX 01 00:39:11
  TRACK 31 AUDIO
    TITLE "0:"
    INDEX 01 00:40:64
  TRACK 32 AUDIO
    TITLE "15:cjc034_04492"
    INDEX 01 00:41:22
  TRACK 33 AUDIO
    TITLE "0:"
    INDEX 01 00:45:37
  TRACK 34 AUDIO
    TITLE "12:cjc034_04493"
    INDEX 01 00:46:68
  TRACK 35 AUDIO
    TITLE "0:"
    INDEX 01 00:48:10
  TRACK 36 AUDIO
    TITLE "13:cjc034_04494"
    INDEX 01 00:48:46
  TRACK 37 AUDIO
    TITLE "0:"
    INDEX 01 00:52:00
  TRACK 38 AUDIO
    TITLE "14:cjc034_04495"
    INDEX 01 00:52:34
  TRACK 39 AUDIO
    TITLE "0:"
    INDEX 01 00:53:49
  TRACK 40 AUDIO
    TITLE "15:cjc034_04496"
    INDEX 01 00:54:09
  TRACK 41 AUDIO
    TITLE "0:"
    INDEX 01 00:57:15
  TRACK 42 AUDIO
    TITLE "12:cjc034_04497"
    INDEX 01 00:58:48
  TRACK 43 AUDIO
    TITLE "0:"
    INDEX 01 01:00:27
  TRACK 44 AUDIO
    TITLE "13:cjc034_04498"
    INDEX 01 01:00:59
  TRACK 45 AUDIO
    TITLE "0:"
    INDEX 01 01:02:30
  TRACK 46 AUDIO
    TITLE "14:cjc034_04499"
    INDEX 01 01:02:61
  TRACK 47 AUDIO
    TITLE "0:"
    INDEX 01 01:04:41
  TRACK 48 AUDIO
    TITLE "15:cjc034_04500"
    INDEX 01 01:04:72
  TRACK 49 AUDIO
    TITLE "0:"
    INDEX 01 01:09:22
  TRACK 50 AUDIO
    TITLE "12:cjc034_04501"
    INDEX 01 01:10:53
  TRACK 51 AUDIO
    TITLE "0:"
    INDEX 01 01:14:29
  TRACK 52 AUDIO
    TITLE "13:cjc034_04502"
    INDEX 01 01:14:63
  TRACK 53 AUDIO
    TITLE "0:"
    INDEX 01 01:18:09
  TRACK 54 AUDIO
    TITLE "14:cjc034_04503"
    INDEX 01 01:18:43
  TRACK 55 AUDIO
    TITLE "0:"
    INDEX 01 01:22:19
  TRACK 56 AUDIO
    TITLE "15:cjc034_04504"
    INDEX 01 01:22:54
  TRACK 57 AUDIO
    TITLE "0:"
    INDEX 01 01:25:70
  TRACK 58 AUDIO
    TITLE "12:cjc034_04505"
    INDEX 01 01:27:28
  TRACK 59 AUDIO
    TITLE "0:"
    INDEX 01 01:28:37
  TRACK 60 AUDIO
    TITLE "13:cjc034_04506"
    INDEX 01 01:28:71
  TRACK 61 AUDIO
    TITLE "0:"
    INDEX 01 01:34:22
  TRACK 62 AUDIO
    TITLE "14:cjc034_04507"
    INDEX 01 01:34:57
  TRACK 63 AUDIO
    TITLE "0:"
    INDEX 01 01:35:65
  TRACK 64 AUDIO
    TITLE "15:cjc034_04508"
    INDEX 01 01:36:23
  TRACK 65 AUDIO
    TITLE "0:"
    INDEX 01 01:40:31
  TRACK 66 AUDIO
    TITLE "12:cjc034_04509"
    INDEX 01 01:41:63
  TRACK 67 AUDIO
    TITLE "0:"
    INDEX 01 01:43:29
  TRACK 68 AUDIO
    TITLE "13:cjc034_04510"
    INDEX 01 01:43:60
  TRACK 69 AUDIO
    TITLE "0:"
    INDEX 01 01:47:07
  TRACK 70 AUDIO
    TITLE "14:cjc034_04511"
    INDEX 01 01:47:40
  TRACK 71 AUDIO
    TITLE "0:"
    INDEX 01 01:49:06
  TRACK 72 AUDIO
    TITLE "15:cjc034_04512"
    INDEX 01 01:49:37
  TRACK 73 AUDIO
    TITLE "0:"
    INDEX 01 01:52:40
